<svg width="20" height="20" viewBox="0 0 20 20" fill="none" xmlns="http://www.w3.org/2000/svg">
<path d="M5.06667 10.3167C5.10633 10.419 5.1658 10.5124 5.24167 10.5917L9.40833 14.7583C9.48603 14.836 9.57827 14.8977 9.67979 14.9397C9.78131 14.9818 9.89012 15.0034 10 15.0034C10.2219 15.0034 10.4347 14.9153 10.5917 14.7583C10.6694 14.6806 10.731 14.5884 10.7731 14.4869C10.8151 14.3854 10.8367 14.2766 10.8367 14.1667C10.8367 13.9448 10.7486 13.7319 10.5917 13.575L7.84167 10.8333L14.1667 10.8333C14.3877 10.8333 14.5996 10.7455 14.7559 10.5893C14.9122 10.433 15 10.221 15 10C15 9.77899 14.9122 9.56703 14.7559 9.41075C14.5996 9.25447 14.3877 9.16667 14.1667 9.16667L7.84167 9.16667L10.5917 6.42501C10.6698 6.34754 10.7318 6.25537 10.7741 6.15382C10.8164 6.05227 10.8382 5.94335 10.8382 5.83334C10.8382 5.72333 10.8164 5.61441 10.7741 5.51286C10.7318 5.41131 10.6698 5.31914 10.5917 5.24167C10.5142 5.16357 10.422 5.10157 10.3205 5.05926C10.2189 5.01696 10.11 4.99518 10 4.99518C9.88999 4.99518 9.78107 5.01696 9.67952 5.05926C9.57797 5.10157 9.48581 5.16357 9.40834 5.24167L5.24167 9.40834C5.1658 9.48759 5.10633 9.58105 5.06667 9.68334C4.98332 9.88622 4.98332 10.1138 5.06667 10.3167Z" fill="#9BB5CC"/>
</svg>
