<svg width="20" height="20" viewBox="0 0 20 20" fill="none" xmlns="http://www.w3.org/2000/svg">
<path d="M5.24159 10.5915L8.57492 13.9248C8.65262 14.0025 8.74486 14.0642 8.84638 14.1062C8.9479 14.1483 9.0567 14.1699 9.16659 14.1699C9.27647 14.1699 9.38528 14.1483 9.48679 14.1062C9.58831 14.0642 9.68055 14.0025 9.75825 13.9248C9.83595 13.8471 9.89759 13.7549 9.93964 13.6534C9.98169 13.5519 10.0033 13.4431 10.0033 13.3332C10.0033 13.2233 9.98169 13.1145 9.93964 13.013C9.89759 12.9114 9.83595 12.8192 9.75825 12.7415L7.84159 10.8332L17.4999 10.8332C17.7209 10.8332 17.9329 10.7454 18.0892 10.5891C18.2455 10.4328 18.3333 10.2209 18.3333 9.99984C18.3333 9.77882 18.2455 9.56686 18.0892 9.41058C17.9329 9.2543 17.7209 9.1665 17.4999 9.1665L7.84159 9.1665L9.75825 7.25817C9.83636 7.1807 9.89836 7.08853 9.94066 6.98698C9.98297 6.88543 10.0048 6.77651 10.0048 6.6665C10.0048 6.55649 9.98297 6.44757 9.94066 6.34602C9.89836 6.24447 9.83636 6.15231 9.75825 6.07484C9.68078 5.99673 9.58862 5.93473 9.48707 5.89243C9.38552 5.85012 9.2766 5.82834 9.16659 5.82834C9.05658 5.82834 8.94766 5.85012 8.84611 5.89243C8.74456 5.93473 8.65239 5.99673 8.57492 6.07484L5.24159 9.40817C5.16572 9.48742 5.10625 9.58088 5.06659 9.68317C4.98324 9.88605 4.98324 10.1136 5.06659 10.3165C5.10625 10.4188 5.16572 10.5122 5.24159 10.5915ZM2.49992 16.6665C2.72093 16.6665 2.93289 16.5787 3.08917 16.4224C3.24545 16.2661 3.33325 16.0542 3.33325 15.8332L3.33325 4.1665C3.33325 3.94549 3.24546 3.73353 3.08918 3.57725C2.9329 3.42097 2.72093 3.33317 2.49992 3.33317C2.27891 3.33317 2.06695 3.42097 1.91066 3.57725C1.75438 3.73353 1.66659 3.94549 1.66659 4.1665L1.66658 15.8332C1.66658 16.0542 1.75438 16.2661 1.91066 16.4224C2.06694 16.5787 2.2789 16.6665 2.49992 16.6665Z" fill="#9BB5CC"/>
</svg>
